<?xml version="1.0" encoding="UTF-8"?>
<svg version="1.1" xmlns="http://www.w3.org/2000/svg" width="256" height="256">
<path d="M0 0 C0.73702148 0.21430664 1.47404297 0.42861328 2.23339844 0.64941406 C35.96382101 10.80846724 62.46137141 34.23190982 79 65 C94.37038462 94.20373078 96.64463441 131.24379413 87.12109375 162.5703125 C75.51957826 198.06205676 51.9108004 224.25564195 18.72265625 241.21484375 C-5.65552736 253.19755604 -37.55269513 255.89589599 -64 250 C-65.18722656 249.74347656 -66.37445313 249.48695313 -67.59765625 249.22265625 C-100.40594707 241.31745277 -128.74803609 220.22318199 -146.48583984 191.60253906 C-163.64427904 162.118013 -169.64109977 125.27520275 -161 92 C-160.83371094 91.34467285 -160.66742188 90.6893457 -160.49609375 90.01416016 C-157.7105533 79.31304226 -153.29694915 69.67717079 -148 60 C-147.48308594 59.05125 -146.96617187 58.1025 -146.43359375 57.125 C-142.87834424 50.92510985 -138.61738752 45.4422247 -134 40 C-133.31035156 39.175 -132.62070313 38.35 -131.91015625 37.5 C-115.0938339 18.03807178 -92.60811836 5.66988742 -68 -1 C-66.86175781 -1.32226562 -65.72351563 -1.64453125 -64.55078125 -1.9765625 C-44.29401956 -6.74548109 -19.90043617 -5.83947591 0 0 Z " fill="#FD5154" transform="translate(164,4)"/>
<path d="M0 0 C4.37222351 1.62681691 7.35196033 5.41302914 10.50405884 8.72268677 C11.28846848 9.52032944 12.07287811 10.31797211 12.88105774 11.13978577 C15.37808483 13.68354587 17.85386446 16.24678402 20.32827759 18.81253052 C22.82394264 21.37823249 25.32381532 23.93963411 27.82905579 26.49598694 C29.38574367 28.08673859 30.9362245 29.68359177 32.47996521 31.28691101 C33.52696846 32.36319008 33.52696846 32.36319008 34.59512329 33.46121216 C35.5160955 34.41599205 35.5160955 34.41599205 36.45567322 35.39006042 C37.92210342 36.96906452 37.92210342 36.96906452 40.01577759 36.75003052 C41.55035125 35.23283069 41.55035125 35.23283069 43.14077759 33.25003052 C48.52750254 26.92648383 54.34212383 21.25141156 60.67984009 15.89065552 C62.6070835 14.12455285 64.38150208 12.32869789 66.16421509 10.42190552 C66.72664917 9.82917847 67.28908325 9.23645142 67.86856079 8.62576294 C68.98930111 7.43716686 70.09533242 6.23448853 71.18447876 5.01687622 C74.12310274 1.92256356 75.35561351 0.83957959 79.73062134 0.24612427 C83.01577759 0.75003052 83.01577759 0.75003052 86.01577759 2.75003052 C86.58449529 6.41622855 86.42398162 8.14717363 84.32827759 11.24221802 C83.18359009 12.42171021 83.18359009 12.42171021 82.01577759 13.62503052 C81.19206665 14.48483521 80.36835571 15.34463989 79.51968384 16.23049927 C78.69339478 17.06194458 77.86710571 17.89338989 77.01577759 18.75003052 C76.32355103 19.46803833 75.63132446 20.18604614 74.91812134 20.92581177 C71.79738196 24.12100219 68.5931258 27.15497778 65.20327759 30.06253052 C61.70192884 33.10170123 58.29655343 36.22617709 54.95327759 39.43753052 C54.20050537 40.13326172 54.20050537 40.13326172 53.43252563 40.8430481 C51.85585382 42.32524529 51.85585382 42.32524529 50.01577759 44.75003052 C50.31614647 48.26999136 51.84316729 49.91524409 54.3421936 52.29006958 C55.04284439 52.96467224 55.74349518 53.6392749 56.46537781 54.33432007 C57.2257988 55.05416077 57.98621979 55.77400146 58.76968384 56.51565552 C60.36219917 58.06048815 61.95397333 59.60608513 63.54507446 61.15237427 C66.06081858 63.58138553 68.58212211 66.00368391 71.11709595 68.41262817 C73.56101098 70.74154945 75.97902057 73.09499047 78.39468384 75.45315552 C79.15712906 76.16489929 79.91957428 76.87664307 80.7051239 77.60995483 C86.47566164 83.29538361 86.47566164 83.29538361 86.61709595 88.14358521 C86.01577759 91.75003052 86.01577759 91.75003052 84.01577759 93.75003052 C80.93936157 94.38088989 80.93936157 94.38088989 77.01577759 93.75003052 C73.71130533 91.4269685 71.02200932 88.56992284 68.23843384 85.65628052 C67.42708481 84.83502686 66.61573578 84.01377319 65.77980042 83.16763306 C63.19572352 80.54441599 60.63705783 77.89790578 58.07827759 75.25003052 C56.3292479 73.46588755 54.57861449 71.68331521 52.82632446 69.90237427 C48.53737613 65.53630476 44.26903283 61.15086299 40.01577759 56.75003052 C36.88076505 58.13513087 34.81604774 59.72804037 32.44400024 62.18997192 C31.7629422 62.89054718 31.08188416 63.59112244 30.38018799 64.31292725 C29.29101578 65.4458168 29.29101578 65.4458168 28.17984009 66.60159302 C26.62574431 68.19071358 25.07103797 69.77923723 23.51577759 71.36721802 C21.07116353 73.87383315 18.63147143 76.38469073 16.20230103 78.90628052 C13.85408403 81.33907514 11.48745295 83.7526514 9.11734009 86.16409302 C8.39527374 86.92340118 7.6732074 87.68270935 6.92926025 88.46502686 C1.84505978 93.60032782 1.84505978 93.60032782 -2.30307007 94.34915161 C-4.98422241 93.75003052 -4.98422241 93.75003052 -7.98422241 91.75003052 C-8.77685132 87.57050742 -8.9726114 85.22627818 -6.57504272 81.64529419 C-4.51046791 79.3491062 -2.35068054 77.21770772 -0.10922241 75.09378052 C1.08936401 73.91217346 1.08936401 73.91217346 2.31216431 72.70669556 C4.86184085 70.20170432 7.43793249 67.72599211 10.01577759 65.25003052 C11.75197076 63.55397306 13.48636864 61.85607573 15.21890259 60.15628052 C19.46394765 55.99931123 23.73101114 51.86602401 28.01577759 47.75003052 C26.67639749 44.76714993 25.20601804 42.69804289 22.88296509 40.40603638 C22.24890747 39.77535751 21.61484985 39.14467865 20.96157837 38.49488831 C19.93653198 37.49003136 19.93653198 37.49003136 18.89077759 36.46487427 C18.18807739 35.76737564 17.4853772 35.06987701 16.76138306 34.35124207 C14.51754461 32.12520222 12.26713504 29.90596355 10.01577759 27.68753052 C7.76529505 25.46467453 5.51628702 23.24037676 3.27017212 21.0131073 C1.87285494 19.62803587 0.47287308 18.24564645 -0.93002319 16.8662262 C-1.56408081 16.23869949 -2.19813843 15.61117279 -2.85140991 14.96463013 C-3.40941284 14.41488022 -3.96741577 13.86513031 -4.54232788 13.29872131 C-6.86487149 10.80415473 -7.94068934 9.16794806 -8.29672241 5.75003052 C-7.98422241 2.75003052 -7.98422241 2.75003052 -6.92172241 0.81253052 C-4.49523581 -0.51812343 -2.69850558 -0.44841003 0 0 Z " fill="#FEF7F8" transform="translate(88.98422241210938,81.24996948242188)"/>
</svg>
