<svg fill="none" height="48" viewBox="0 0 48 48" width="48" xmlns="http://www.w3.org/2000/svg"><path d="m0 0h48v48h-48z" fill="#fff" fill-opacity=".01"/><path d="m24 44c5.5228 0 10.5228-2.2386 14.1421-5.8579s5.8579-8.6193 5.8579-14.1421-2.2386-10.5228-5.8579-14.14214c-3.6193-3.61928-8.6193-5.85786-14.1421-5.85786s-10.5228 2.23858-14.14214 5.85786c-3.61928 3.61934-5.85786 8.61934-5.85786 14.14214s2.23858 10.5228 5.85786 14.1421c3.61934 3.6193 8.61934 5.8579 14.14214 5.8579z" fill="#2f88ff" stroke="#000" stroke-linejoin="round" stroke-width="4"/><path d="m24 28.6249v-4c3.3137 0 6-2.6863 6-6s-2.6863-6-6-6-6 2.6863-6 6" stroke="#fff" stroke-linecap="round" stroke-linejoin="round" stroke-width="4"/><path clip-rule="evenodd" d="m24 37.6249c1.3807 0 2.5-1.1193 2.5-2.5s-1.1193-2.5-2.5-2.5-2.5 1.1193-2.5 2.5 1.1193 2.5 2.5 2.5z" fill="#fff" fill-rule="evenodd"/></svg>