<?xml version="1.0" encoding="UTF-8"?>
<svg version="1.1" xmlns="http://www.w3.org/2000/svg" width="256" height="256">
<path d="M0 0 C0.73702148 0.21430664 1.47404297 0.42861328 2.23339844 0.64941406 C35.96382101 10.80846724 62.46137141 34.23190982 79 65 C94.37038462 94.20373078 96.64463441 131.24379413 87.12109375 162.5703125 C75.51957826 198.06205676 51.9108004 224.25564195 18.72265625 241.21484375 C-5.65552736 253.19755604 -37.55269513 255.89589599 -64 250 C-65.18722656 249.74347656 -66.37445313 249.48695313 -67.59765625 249.22265625 C-100.40594707 241.31745277 -128.74803609 220.22318199 -146.48583984 191.60253906 C-163.64427904 162.118013 -169.64109977 125.27520275 -161 92 C-160.83371094 91.34467285 -160.66742188 90.6893457 -160.49609375 90.01416016 C-157.7105533 79.31304226 -153.29694915 69.67717079 -148 60 C-147.48308594 59.05125 -146.96617187 58.1025 -146.43359375 57.125 C-142.87834424 50.92510985 -138.61738752 45.4422247 -134 40 C-133.31035156 39.175 -132.62070313 38.35 -131.91015625 37.5 C-115.0938339 18.03807178 -92.60811836 5.66988742 -68 -1 C-66.86175781 -1.32226562 -65.72351563 -1.64453125 -64.55078125 -1.9765625 C-44.29401956 -6.74548109 -19.90043617 -5.83947591 0 0 Z " fill="#21C179" transform="translate(164,4)"/>
<path d="M0 0 C2.03734378 3.05601567 2.51497956 4.36227485 1.85916138 7.9387207 C-0.15820548 12.77873871 -4.52415664 16.25832301 -8.22265625 19.84375 C-9.15669785 20.77167358 -10.09073944 21.69959717 -11.05308533 22.65563965 C-13.53401478 25.1193824 -16.03283241 27.56419097 -18.53552246 30.00579834 C-20.55757078 31.98444431 -22.56673243 33.97588766 -24.57524967 35.96825409 C-40.58278136 51.8448947 -40.58278136 51.8448947 -48.22944641 58.43450928 C-50.82090341 60.7258276 -53.17961051 63.17472487 -55.56640625 65.6796875 C-56.55588957 66.70124884 -57.54614624 67.72206159 -58.53710938 68.7421875 C-60.06065183 70.31529008 -61.57890592 71.89232423 -63.0847168 73.48242188 C-64.56475993 75.04141654 -66.06343743 76.58032493 -67.56640625 78.1171875 C-68.88040405 79.48786377 -68.88040405 79.48786377 -70.22094727 80.88623047 C-73.61144744 83.46507177 -75.75840111 84.00304188 -80 84 C-82.13647461 82.75585938 -82.13647461 82.75585938 -83.90234375 80.84375 C-84.89717773 79.80347656 -84.89717773 79.80347656 -85.91210938 78.7421875 C-86.58048828 78.00226563 -87.24886719 77.26234375 -87.9375 76.5 C-89.27735142 75.0704786 -90.61979372 73.64338107 -91.96484375 72.21875 C-92.62621338 71.51218262 -93.28758301 70.80561523 -93.96899414 70.07763672 C-96.5930004 67.39338461 -99.3880998 64.95711606 -102.23901367 62.51855469 C-105.03542381 60.10712102 -107.59229326 57.48546846 -110.16796875 54.84375 C-111.71432737 53.28749996 -113.34893194 51.81968455 -115 50.375 C-117 48 -117 48 -117.5 44.875 C-117 42 -117 42 -115.875 40.125 C-113.06234736 38.43740841 -111.24339034 38.61406774 -108 39 C-105.77702199 40.62634767 -104.03730044 42.12680844 -102.125 44.0625 C-101.57980713 44.5874707 -101.03461426 45.11244141 -100.47290039 45.65332031 C-98.6360188 47.42302716 -96.8183428 49.21126136 -95 51 C-92.86567251 53.0786191 -90.72486412 55.14955075 -88.57177734 57.20874023 C-87.16541805 58.55380659 -85.76830964 59.90862252 -84.38134766 61.27368164 C-83.73858887 61.88977295 -83.09583008 62.50586426 -82.43359375 63.140625 C-81.86697021 63.69266602 -81.30034668 64.24470703 -80.71655273 64.81347656 C-78.79938033 66.37907168 -78.79938033 66.37907168 -75 66 C-73.04955967 64.3873675 -71.37553571 62.81710103 -69.640625 60.99609375 C-69.1325531 60.47999039 -68.6244812 59.96388702 -68.10101318 59.43214417 C-66.47430447 57.77644161 -64.86174023 56.10776576 -63.25 54.4375 C-61.65014884 52.79476973 -60.04739805 51.15498389 -58.4418335 49.51783752 C-57.44498973 48.4997645 -56.45171121 47.47818153 -55.46295166 46.45225525 C-52.79304163 43.70809788 -50.03976677 41.13451187 -47.13891602 38.63452148 C-42.84816872 34.92240431 -38.86399346 30.95696671 -34.88671875 26.9140625 C-33.37708253 25.39179874 -31.86731313 23.86966705 -30.35742188 22.34765625 C-28.00745185 19.97273647 -25.65912881 17.59622913 -23.31323242 15.21728516 C-21.02956254 12.90353894 -18.73981545 10.5959484 -16.44921875 8.2890625 C-15.74609055 7.57247467 -15.04296234 6.85588684 -14.31852722 6.11758423 C-13.66386978 5.45954803 -13.00921234 4.80151184 -12.3347168 4.12353516 C-11.76150192 3.54286285 -11.18828705 2.96219055 -10.59770203 2.36392212 C-7.40494536 -0.36166211 -4.01851396 -0.34200119 0 0 Z " fill="#F6FCFA" transform="translate(187,83)"/>
<path d="M0 0 C-0.598125 0.268125 -1.19625 0.53625 -1.8125 0.8125 C-5.54027009 2.83614662 -7.27817426 5.15900412 -9 9 C-9.36 3.6 -9.36 3.6 -7.875 1.125 C-5.21965017 -0.4682099 -3.03210482 -0.20214032 0 0 Z " fill="#C5EEDC" transform="translate(79,122)"/>
</svg>
