<?xml version="1.0" encoding="UTF-8"?>
<svg version="1.1" xmlns="http://www.w3.org/2000/svg" width="235" height="214">
<path d="M0 0 C9.70368835 7.2630637 15.16667716 17.45295221 20.890625 27.9296875 C25.56636987 36.38372982 30.31173265 44.78597878 35.203125 53.1171875 C40.30431504 61.81300223 45.33821017 70.54475102 50.328125 79.3046875 C55.28162129 87.99887235 60.27221089 96.66948658 65.328125 105.3046875 C73.09497359 118.58115128 80.76460548 131.91131395 88.328125 145.3046875 C88.80636719 146.1507959 89.28460938 146.9969043 89.77734375 147.86865234 C90.9318258 149.92407443 92.07190489 151.98639571 93.203125 154.0546875 C93.77804688 155.10140625 94.35296875 156.148125 94.9453125 157.2265625 C99.18767388 166.670011 99.97004147 177.21512801 96.765625 187.1171875 C92.79826264 196.68061887 85.76566549 202.56530857 76.390625 206.5546875 C66.98344712 208.85848616 57.27616163 208.45337916 47.66015625 208.44995117 C45.97887091 208.45294722 44.29758625 208.45635077 42.61630249 208.46012878 C38.07091786 208.46892524 33.52555208 208.47130499 28.98015976 208.47194457 C26.13656165 208.47265727 23.29296827 208.47479569 20.44937134 208.47744179 C10.51865334 208.48667907 0.58794872 208.49077849 -9.34277344 208.48999023 C-18.58420423 208.48938909 -27.82557672 208.49995229 -37.06699276 208.5157339 C-45.01714571 208.52882433 -52.96727963 208.53417354 -60.91744328 208.53353482 C-65.65888079 208.53328039 -70.40026639 208.53610201 -75.14169312 208.54671288 C-79.6003273 208.5564198 -84.05886018 208.55645529 -88.51749802 208.54919624 C-90.1488599 208.5481538 -91.78022818 208.550493 -93.41157913 208.5565567 C-105.79403204 208.59958385 -116.45305739 208.19472695 -126.671875 200.3046875 C-133.5189812 193.0835797 -136.74939044 185.19877442 -136.984375 175.3046875 C-137.02175781 174.2940625 -137.05914062 173.2834375 -137.09765625 172.2421875 C-135.972307 161.83528802 -131.85494446 153.04645209 -126.421875 144.2421875 C-125.16513026 142.14805669 -123.90998727 140.05296399 -122.65625 137.95703125 C-122.00333984 136.87276855 -121.35042969 135.78850586 -120.67773438 134.67138672 C-117.60589616 129.51551415 -114.64249751 124.29914796 -111.68002319 119.08004761 C-105.81973573 108.76001663 -99.88406214 98.48551642 -93.890625 88.2421875 C-89.62304213 80.94568527 -85.39046035 73.62961655 -81.171875 66.3046875 C-75.11414844 55.79002552 -69.02734324 45.29299577 -62.890625 34.82421875 C-60.86110394 31.35831975 -58.85959393 27.87953326 -56.890625 24.37890625 C-50.10101803 12.38342016 -42.53204639 0.13493261 -28.859375 -4.5078125 C-18.37662271 -7.26309784 -9.19932447 -5.83699828 0 0 Z " fill="#FDEE10" transform="translate(136.671875,5.6953125)"/>
<path d="M0 0 C9.70368835 7.2630637 15.16667716 17.45295221 20.890625 27.9296875 C25.56636987 36.38372982 30.31173265 44.78597878 35.203125 53.1171875 C40.30431504 61.81300223 45.33821017 70.54475102 50.328125 79.3046875 C55.28162129 87.99887235 60.27221089 96.66948658 65.328125 105.3046875 C73.09497359 118.58115128 80.76460548 131.91131395 88.328125 145.3046875 C88.80636719 146.1507959 89.28460938 146.9969043 89.77734375 147.86865234 C90.9318258 149.92407443 92.07190489 151.98639571 93.203125 154.0546875 C93.77804688 155.10140625 94.35296875 156.148125 94.9453125 157.2265625 C99.18767388 166.670011 99.97004147 177.21512801 96.765625 187.1171875 C92.79826264 196.68061887 85.76566549 202.56530857 76.390625 206.5546875 C66.98344712 208.85848616 57.27616163 208.45337916 47.66015625 208.44995117 C45.97887091 208.45294722 44.29758625 208.45635077 42.61630249 208.46012878 C38.07091786 208.46892524 33.52555208 208.47130499 28.98015976 208.47194457 C26.13656165 208.47265727 23.29296827 208.47479569 20.44937134 208.47744179 C10.51865334 208.48667907 0.58794872 208.49077849 -9.34277344 208.48999023 C-18.58420423 208.48938909 -27.82557672 208.49995229 -37.06699276 208.5157339 C-45.01714571 208.52882433 -52.96727963 208.53417354 -60.91744328 208.53353482 C-65.65888079 208.53328039 -70.40026639 208.53610201 -75.14169312 208.54671288 C-79.6003273 208.5564198 -84.05886018 208.55645529 -88.51749802 208.54919624 C-90.1488599 208.5481538 -91.78022818 208.550493 -93.41157913 208.5565567 C-105.79403204 208.59958385 -116.45305739 208.19472695 -126.671875 200.3046875 C-133.5189812 193.0835797 -136.74939044 185.19877442 -136.984375 175.3046875 C-137.02175781 174.2940625 -137.05914062 173.2834375 -137.09765625 172.2421875 C-135.972307 161.83528802 -131.85494446 153.04645209 -126.421875 144.2421875 C-125.16513026 142.14805669 -123.90998727 140.05296399 -122.65625 137.95703125 C-122.00333984 136.87276855 -121.35042969 135.78850586 -120.67773438 134.67138672 C-117.60589616 129.51551415 -114.64249751 124.29914796 -111.68002319 119.08004761 C-105.81973573 108.76001663 -99.88406214 98.48551642 -93.890625 88.2421875 C-89.62304213 80.94568527 -85.39046035 73.62961655 -81.171875 66.3046875 C-75.11414844 55.79002552 -69.02734324 45.29299577 -62.890625 34.82421875 C-60.86110394 31.35831975 -58.85959393 27.87953326 -56.890625 24.37890625 C-50.10101803 12.38342016 -42.53204639 0.13493261 -28.859375 -4.5078125 C-18.37662271 -7.26309784 -9.19932447 -5.83699828 0 0 Z M-34.671875 17.3046875 C-40.63877125 25.75436127 -45.41732162 35.10281962 -50.47753906 44.1081543 C-54.41395452 51.10902994 -58.42323364 58.06300194 -62.484375 64.9921875 C-67.6896986 73.87564693 -72.8250079 82.79628375 -77.921875 91.7421875 C-82.49281075 99.76417773 -87.08916283 107.76767034 -91.80126953 115.70776367 C-94.42738907 120.14881875 -97.00126808 124.61837473 -99.5546875 129.1015625 C-99.90223083 129.71153076 -100.24977417 130.32149902 -100.60784912 130.94995117 C-102.33839961 133.98876328 -104.06583647 137.02929439 -105.7890625 140.07226562 C-111.14747334 149.49771029 -111.14747334 149.49771029 -113.87402344 153.84570312 C-114.23615936 154.42358582 -114.59829529 155.00146851 -114.97140503 155.59686279 C-115.97545104 157.18824056 -116.98911691 158.77353727 -118.00341797 160.35839844 C-121.50515183 166.54202797 -122.54716602 172.30235931 -121.671875 179.3046875 C-119.98551283 184.62812267 -117.44162306 188.27996922 -112.671875 191.3046875 C-108.51732501 193.34382587 -105.09276772 193.55796439 -100.48748779 193.56538391 C-99.7749441 193.56920946 -99.0624004 193.57303501 -98.32826447 193.57697648 C-95.94630648 193.58727553 -93.56459094 193.58332022 -91.18261719 193.5793457 C-89.47236407 193.583694 -87.7621129 193.58887754 -86.05186462 193.59483337 C-81.40912054 193.60822467 -76.76645787 193.6088017 -72.12369823 193.60627007 C-68.24469163 193.60520006 -64.36570147 193.61008473 -60.48669839 193.6148755 C-51.33145177 193.62597198 -42.17624618 193.62640785 -33.02099609 193.62036133 C-23.5864822 193.61432595 -14.15211761 193.62662116 -4.71762919 193.6479314 C3.38956121 193.66556809 11.49670419 193.67154533 19.60391307 193.66829365 C24.44268142 193.66648333 29.28134337 193.6690916 34.1200943 193.68300819 C38.67393135 193.6956149 43.22753654 193.69361558 47.78137016 193.68059731 C49.44820421 193.67823784 51.11505472 193.68094355 52.78186989 193.68922043 C66.12724046 194.23507893 66.12724046 194.23507893 77.89426041 188.95897388 C82.60849824 183.70186008 83.54147273 178.99277716 83.7890625 172.1953125 C82.50020597 164.11265291 77.46420699 156.73972884 73.453125 149.7421875 C72.88722656 148.74767578 72.32132813 147.75316406 71.73828125 146.72851562 C67.07013327 138.54643208 62.32028207 130.4124528 57.55883789 122.28442383 C53.60931671 115.53261553 49.72701786 108.74635062 45.890625 101.9296875 C35.90670342 84.19386709 25.70259754 66.58361654 15.40234375 49.02978516 C12.55937487 44.17520532 9.75734345 39.30411142 7.03125 34.3828125 C6.50168701 33.43317627 5.97212402 32.48354004 5.42651367 31.50512695 C4.44005633 29.73057 3.46282771 27.95083373 2.49731445 26.16479492 C-1.86256162 18.34439999 -6.88847928 11.97107549 -15.671875 9.3046875 C-23.3906516 8.4921847 -29.52400482 11.5931819 -34.671875 17.3046875 Z " fill="#191918" transform="translate(136.671875,5.6953125)"/>
<path d="M0 0 C1.83498047 -0.03867187 1.83498047 -0.03867187 3.70703125 -0.078125 C7.44181539 0.27397586 9.23847895 0.98396587 12.1875 3.25 C14.74517484 7.08651225 14.25565578 9.88810722 13.93359375 14.2890625 C13.8810997 15.11781891 13.82860565 15.94657532 13.77452087 16.80044556 C13.59144211 19.61796124 13.39039751 22.43384534 13.1875 25.25 C13.11718567 26.2659021 13.04687134 27.2818042 12.97442627 28.32849121 C12.51575063 34.95403224 12.02504292 41.57662531 11.51293945 48.19824219 C11.24669254 51.66810451 10.99156865 55.13868782 10.73632812 58.609375 C10.56578663 60.83078167 10.39458753 63.05213797 10.22265625 65.2734375 C10.14862076 66.30358978 10.07458527 67.33374207 9.99830627 68.39511108 C9.92160202 69.35446564 9.84489777 70.31382019 9.76586914 71.30224609 C9.702267 72.13984467 9.63866486 72.97744324 9.57313538 73.84042358 C9.13843103 76.55659903 8.38355135 78.77489662 7.1875 81.25 C4.86063547 82.41343227 3.34028587 82.44895988 0.75 82.5 C-0.42369141 82.53867188 -0.42369141 82.53867188 -1.62109375 82.578125 C-4.38204247 82.16472091 -5.06053562 81.38051436 -6.8125 79.25 C-7.47371703 76.21329958 -7.94512962 73.32564603 -8.3125 70.25 C-8.43214111 69.30882324 -8.55178223 68.36764648 -8.67504883 67.39794922 C-9.80727569 58.07675734 -10.66690527 48.72683793 -11.5 39.375 C-11.56670898 38.64490723 -11.63341797 37.91481445 -11.70214844 37.16259766 C-12.41335111 29.28452425 -12.96444996 21.40172317 -13.14453125 13.4921875 C-13.17909424 12.21972168 -13.21365723 10.94725586 -13.24926758 9.63623047 C-12.7357221 5.654746 -11.61656358 4.06154629 -8.8125 1.25 C-5.88789571 -0.21230215 -3.25597176 0.04091273 0 0 Z " fill="#1A1916" transform="translate(116.8125,62.75)"/>
<path d="M0 0 C1 2 1 2 0.0625 5.125 C-0.288125 6.07375 -0.63875 7.0225 -1 8 C0.32 8.66 1.64 9.32 3 10 C-0.06117568 12.62386487 -0.73173127 13 -5 13 C-4.88623383 15.12563103 -4.75864369 17.2505261 -4.625 19.375 C-4.55539063 20.55835938 -4.48578125 21.74171875 -4.4140625 22.9609375 C-4.29782654 26.10562319 -4.29782654 26.10562319 -2 28 C-1.01 28.33 -0.02 28.66 1 29 C1 30.65 1 32.3 1 34 C5.15900336 35.00149745 9.18035564 35.15215068 13.43476868 35.15821838 C14.543736 35.16562535 14.543736 35.16562535 15.6751067 35.17318195 C18.14709042 35.18851382 20.61904825 35.19690585 23.09106445 35.20532227 C24.86518073 35.21490418 26.63929474 35.22491445 28.41340637 35.23532104 C33.22699184 35.2623422 38.04058708 35.28336688 42.85420632 35.30332303 C47.88574773 35.32519977 52.91725909 35.35258021 57.94877625 35.37937927 C67.47548849 35.42928331 77.00221744 35.47423064 86.52896231 35.51740164 C97.37532463 35.56679356 108.22165679 35.62170445 119.06798995 35.67708123 C141.37863183 35.79086614 163.68930264 35.8977128 186 36 C182.33527995 38.31277474 179.20226825 38.25620504 174.92913818 38.26742554 C173.86054593 38.27422221 173.86054593 38.27422221 172.77036595 38.28115618 C170.38297753 38.29381742 167.99581673 38.29217871 165.60839844 38.29052734 C163.89666958 38.29651162 162.18494342 38.30331694 160.47322083 38.31088257 C155.82222801 38.32856245 151.17130877 38.33323885 146.52028561 38.33451414 C143.61356528 38.33593545 140.70686368 38.34020472 137.80014801 38.34550858 C127.65662956 38.36401713 117.51316369 38.37217837 107.36962891 38.37060547 C97.91974175 38.36940462 88.47008321 38.39049369 79.0202539 38.4220928 C70.90375627 38.44826453 62.78733326 38.45897235 54.67079377 38.45769465 C49.82473611 38.45718518 44.97888148 38.46286001 40.13286591 38.48405075 C35.57243006 38.50344761 31.01239055 38.50354773 26.45194054 38.48901749 C24.78145708 38.48692991 23.11094874 38.49162724 21.44050789 38.5037384 C5.71700022 38.61032097 5.71700022 38.61032097 -1 34 C-5.35541781 29.52996593 -7.08857018 25.42733646 -7.375 19.25 C-7.2331547 11.92860011 -3.90207042 6.04820915 0 0 Z " fill="#D2C93A" transform="translate(22,161)"/>
<path d="M0 0 C3.49890004 2.11391877 4.70578686 3.11736059 6 7 C6.49802056 11.39918165 6.28855755 13.49735136 4.0625 17.375 C1.19368203 20.39866894 -1.68625301 21.09394423 -5.77734375 21.3125 C-9.67346466 20.76471499 -11.35907923 18.83898983 -14 16 C-15.5547669 12.89046621 -15.28644437 10.43733239 -15 7 C-11.11556086 0.00800955 -7.68685692 -0.98243076 0 0 Z " fill="#1B1A18" transform="translate(122,156)"/>
<path d="M0 0 C0.33 0 0.66 0 1 0 C2.68160756 12.02843993 3.7948841 24.10373541 4.85864258 36.19921875 C5.03727272 51.11949826 5.03727272 51.11949826 10 64 C12.66949409 64.24315656 12.66949409 64.24315656 15.625 64.125 C17.12933594 64.09792969 17.12933594 64.09792969 18.6640625 64.0703125 C19.43492188 64.04710937 20.20578125 64.02390625 21 64 C21.33 62.35 21.66 60.7 22 59 C22.33 59 22.66 59 23 59 C23.25 61.3125 23.25 61.3125 23 64 C20.83323995 66.1368737 19.58829491 66.95724871 16.52734375 67.1796875 C15.67269531 67.07914062 14.81804687 66.97859375 13.9375 66.875 C13.08027344 66.78992188 12.22304687 66.70484375 11.33984375 66.6171875 C8.60257942 65.8951712 7.6867516 65.25233893 6 63 C3.61762918 58.57444336 3.60726626 54.16079953 3.4375 49.25 C3.6955059 44.226019 3.6955059 44.226019 2 40 C1.78586869 36.97539523 1.62232124 33.96608324 1.5 30.9375 C1.2074223 23.8589221 1.2074223 23.8589221 0.47265625 16.81640625 C0.01995467 13.16112163 -0.10082743 9.67943312 -0.0625 6 C-0.05347656 4.865625 -0.04445313 3.73125 -0.03515625 2.5625 C-0.02355469 1.716875 -0.01195313 0.87125 0 0 Z " fill="#DDD537" transform="translate(103,80)"/>
<path d="M0 0 C4.52736458 3.45205 7.2647784 6.5225728 10.12109375 11.54296875 C10.47011246 12.15263992 10.81913116 12.7623111 11.1787262 13.39045715 C11.90603424 14.66714089 12.62757884 15.94712412 13.34350586 17.23022461 C14.44498604 19.20089335 15.56762509 21.15833906 16.69335938 23.11523438 C20.66784507 30.1263552 20.66784507 30.1263552 22 33 C21.67 33.66 21.34 34.32 21 35 C18.625 34.0625 18.625 34.0625 16 32 C15.23561367 29.65616346 14.81595134 27.39843877 14.45703125 24.9609375 C14.30621094 24.31382813 14.15539062 23.66671875 14 23 C13.34 22.67 12.68 22.34 12 22 C11 19 11 19 10 16 C9.34 15.67 8.68 15.34 8 15 C6.94952356 12.68895182 5.94992562 10.35416349 5 8 C4.67 7.34 4.34 6.68 4 6 C3.01 6 2.02 6 1 6 C0.67 4.02 0.34 2.04 0 0 Z " fill="#E7DE39" transform="translate(129,20)"/>
<path d="M0 0 C1 2 1 2 0.0625 5.125 C-0.288125 6.07375 -0.63875 7.0225 -1 8 C0.32 8.66 1.64 9.32 3 10 C-0.06117568 12.62386487 -0.73173127 13 -5 13 C-4.85805236 15.06277107 -4.71127784 17.12521031 -4.5625 19.1875 C-4.48128906 20.33605469 -4.40007813 21.48460937 -4.31640625 22.66796875 C-4.04596188 25.51598171 -3.62478253 28.21210482 -3 31 C-7.28558315 25.59643864 -7.72089201 20.73157272 -7 14 C-5.40357954 8.98154955 -2.84887766 4.41576038 0 0 Z " fill="#E8DE32" transform="translate(22,161)"/>
<path d="M0 0 C0.99 0.33 1.98 0.66 3 1 C-3 12 -3 12 -9 23 C-10.07318928 19.78043217 -9.870689 19.09578311 -9 16 C-9 15.01 -9 14.02 -9 13 C-6.5 11.3125 -6.5 11.3125 -4 10 C-4.33 8.02 -4.66 6.04 -5 4 C-4.01 3.67 -3.02 3.34 -2 3 C-1.34 3.33 -0.68 3.66 0 4 C0 2.68 0 1.36 0 0 Z " fill="#23200A" transform="translate(61,88)"/>
<path d="M0 0 C1.32 0.33 2.64 0.66 4 1 C3.34 2.32 2.68 3.64 2 5 C3.32 5 4.64 5 6 5 C6 5.66 6 6.32 6 7 C4.87851563 6.93039063 4.87851563 6.93039063 3.734375 6.859375 C-2.15198797 6.52906811 -2.15198797 6.52906811 -7.5625 8.4375 C-9.62296981 12.11051139 -10.32922431 15.86943388 -11 20 C-11.33 20 -11.66 20 -12 20 C-12.08333357 15.1666528 -11.95261487 10.76307437 -11 6 C-10.34 6 -9.68 6 -9 6 C-9 5.34 -9 4.68 -9 4 C-6.69 4 -4.38 4 -2 4 C-1.34 2.68 -0.68 1.36 0 0 Z " fill="#EEE72E" transform="translate(118,150)"/>
<path d="M0 0 C0.99 0.33 1.98 0.66 3 1 C2.67 1.66 2.34 2.32 2 3 C2.33 3.33 2.66 3.66 3 4 C3.33 4 3.66 4 4 4 C4.66 2.68 5.32 1.36 6 0 C7.98 0 9.96 0 12 0 C8.7066547 4.35883937 6.22255125 6.95639299 1 9 C0.01 9 -0.98 9 -2 9 C-2.125 5.625 -2.125 5.625 -2 2 C-1.34 1.34 -0.68 0.68 0 0 Z " fill="#151413" transform="translate(215,202)"/>
<path d="M0 0 C2.57348347 2.34174121 4.19412285 4.80302666 5.91796875 7.81640625 C6.44970703 8.74517578 6.98144531 9.67394531 7.52929688 10.63085938 C8.07650391 11.59830078 8.62371094 12.56574219 9.1875 13.5625 C9.74630859 14.53380859 10.30511719 15.50511719 10.88085938 16.50585938 C15 23.74327495 15 23.74327495 15 26 C14.01 26 13.02 26 12 26 C11.71125 25.0925 11.4225 24.185 11.125 23.25 C9.65513763 18.2397949 9.65513763 18.2397949 6 15 C5.67 14.01 5.34 13.02 5 12 C4.01 11.67 3.02 11.34 2 11 C1.26953125 9.00390625 1.26953125 9.00390625 0.8125 6.5625 C0.65394531 5.75941406 0.49539062 4.95632812 0.33203125 4.12890625 C0 2 0 2 0 0 Z " fill="#E9E139" transform="translate(193,128)"/>
<path d="M0 0 C3.24741424 2.78496601 5.16089095 6.39536751 7.25 10.0625 C7.62640625 10.69994141 8.0028125 11.33738281 8.390625 11.99414062 C9.32643643 13.6266499 10.17105723 15.31071511 11 17 C10.67 17.66 10.34 18.32 10 19 C7.36 18.34 4.72 17.68 2 17 C2 15.68 2 14.36 2 13 C2.66 12.67 3.32 12.34 4 12 C3.566875 10.700625 3.566875 10.700625 3.125 9.375 C2.08333333 6.25 1.04166667 3.125 0 0 Z " fill="#F0E628" transform="translate(159,69)"/>
<path d="M0 0 C0.66 1.32 1.32 2.64 2 4 C1.34 4.66 0.68 5.32 0 6 C-2.63062273 9.02920194 -4.09781074 11.13347461 -5 15 C-6 16 -7 17 -8 18 C-8.71447643 20.10332891 -8.71447643 20.10332891 -9 22 C-9.66 22 -10.32 22 -11 22 C-11.66 23.98 -12.32 25.96 -13 28 C-13.66 28 -14.32 28 -15 28 C-13.73735777 23.84979622 -12.19097854 20.31829756 -9.9609375 16.6015625 C-9.38085938 15.62832031 -8.80078125 14.65507812 -8.203125 13.65234375 C-7.59984375 12.65332031 -6.9965625 11.65429688 -6.375 10.625 C-5.45847656 9.09166016 -5.45847656 9.09166016 -4.5234375 7.52734375 C-3.02077463 5.01507927 -1.51284285 2.50614279 0 0 Z " fill="#EAE53A" transform="translate(44,123)"/>
<path d="M0 0 C2.375 0.6875 2.375 0.6875 5 2 C6.56938028 4.91456338 7 6.67941669 7 10 C7.66 10 8.32 10 9 10 C9 11.32 9 12.64 9 14 C9.99 14.33 10.98 14.66 12 15 C12.73046875 17.06640625 12.73046875 17.06640625 13.1875 19.5625 C13.34605469 20.38878906 13.50460938 21.21507813 13.66796875 22.06640625 C13.77753906 22.70449219 13.88710937 23.34257813 14 24 C11.87917817 21.26311696 10.03539058 18.48373964 8.30078125 15.48828125 C7.81416016 14.64845703 7.32753906 13.80863281 6.82617188 12.94335938 C6.32666016 12.07517578 5.82714844 11.20699219 5.3125 10.3125 C4.80138672 9.43271484 4.29027344 8.55292969 3.76367188 7.64648438 C0 1.12915137 0 1.12915137 0 0 Z " fill="#231E05" transform="translate(176,97)"/>
<path d="M0 0 C0.66 0 1.32 0 2 0 C2.47721841 4.00863462 2.12859671 5.78014111 0.0625 9.3125 C-2.83867294 12.47137024 -5.76866941 12.88193542 -9.9140625 13.28515625 C-12.52922655 12.92765255 -13.35749376 12.00343915 -15 10 C-12 10 -9 10 -6 10 C-5.67 9.01 -5.34 8.02 -5 7 C-3.68 7.33 -2.36 7.66 -1 8 C-1.33 7.01 -1.66 6.02 -2 5 C-1.01 5 -0.02 5 1 5 C0.67 3.35 0.34 1.7 0 0 Z " fill="#231E06" transform="translate(126,164)"/>
<path d="M0 0 C6.2212843 5.72135966 11.62377284 15.18101987 12.17578125 23.71875 C12.18604569 26.15484458 12.13455713 28.56800451 12 31 C11.67 31 11.34 31 11 31 C10.938125 29.741875 10.87625 28.48375 10.8125 27.1875 C10.17667031 21.30607539 7.92899527 16.10977368 5 11 C4.34 10.67 3.68 10.34 3 10 C2.1484375 7.71484375 2.1484375 7.71484375 1.375 4.9375 C1.11460937 4.01839844 0.85421875 3.09929687 0.5859375 2.15234375 C0.39257812 1.44207031 0.19921875 0.73179687 0 0 Z " fill="#E0D935" transform="translate(208,154)"/>
<path d="M0 0 C0.33 0.66 0.66 1.32 1 2 C0.38125 3.010625 -0.2375 4.02125 -0.875 5.0625 C-3.42247224 9.22629945 -3.78213365 13.19604694 -4 18 C-5.98 18.33 -7.96 18.66 -10 19 C-8.62394084 14.23448987 -6.53221934 10.2751447 -3.875 6.125 C-3.50246094 5.53203125 -3.12992187 4.9390625 -2.74609375 4.328125 C-1.83635 2.8818657 -0.91896202 1.44041954 0 0 Z " fill="#EDE22E" transform="translate(77,66)"/>
<path d="M0 0 C-0.11386459 2.77170395 -0.24060778 5.54178046 -0.375 8.3125 C-0.4059375 9.09818359 -0.436875 9.88386719 -0.46875 10.69335938 C-0.50742188 11.45068359 -0.54609375 12.20800781 -0.5859375 12.98828125 C-0.6173584 13.68477783 -0.6487793 14.38127441 -0.68115234 15.09887695 C-1 17 -1 17 -3 20 C-3.33 13.73 -3.66 7.46 -4 1 C-2 0 -2 0 0 0 Z " fill="#262609" transform="translate(108,76)"/>
<path d="M0 0 C0.66 0 1.32 0 2 0 C0.68326091 5.66197809 -1.40589263 7.74584061 -6 11 C-6.66 11 -7.32 11 -8 11 C-7.8125 8.1875 -7.8125 8.1875 -7 5 C-4.59196729 3.14766715 -3.07258075 2 0 2 C0 1.34 0 0.68 0 0 Z " fill="#ECE535" transform="translate(217,186)"/>
<path d="M0 0 C1.875 0.6875 1.875 0.6875 4 2 C4.72159424 3.64363134 5.39351421 5.31050386 6 7 C6.66 7.33 7.32 7.66 8 8 C8.75459572 9.7060425 9.50416094 11.41495183 10.203125 13.14453125 C11.24659339 15.57417578 12.58239282 17.77233158 14 20 C13.01 20 12.02 20 11 20 C9.6496582 18.27172852 9.6496582 18.27172852 8.30078125 15.87890625 C7.81416016 15.02619141 7.32753906 14.17347656 6.82617188 13.29492188 C6.32666016 12.39322266 5.82714844 11.49152344 5.3125 10.5625 C4.80138672 9.66466797 4.29027344 8.76683594 3.76367188 7.84179688 C0 1.18376585 0 1.18376585 0 0 Z " fill="#231E05" transform="translate(199,137)"/>
<path d="M0 0 C2.64 0.66 5.28 1.32 8 2 C7.67 3.32 7.34 4.64 7 6 C7.93446535 8.03144641 8.93224776 10.03533587 10 12 C10 12.66 10 13.32 10 14 C10.99 14.33 11.98 14.66 13 15 C12.67 16.32 12.34 17.64 12 19 C9.354044 15.62182976 7.10478363 12.03413211 4.875 8.375 C4.33552734 7.49714844 4.33552734 7.49714844 3.78515625 6.6015625 C2.45499374 4.42946192 1.13965375 2.2793075 0 0 Z " fill="#211B06" transform="translate(132,22)"/>
<path d="M0 0 C0.33 0 0.66 0 1 0 C2.59303128 7.36776966 3.17898274 15.05147252 0 22 C-0.33 22 -0.66 22 -1 22 C-0.67 14.74 -0.34 7.48 0 0 Z " fill="#D4CA30" transform="translate(127,112)"/>
<path d="M0 0 C1.95792062 0.9824318 3.87244564 2.00398258 5.765625 3.10546875 C4.775625 3.60046875 4.775625 3.60046875 3.765625 4.10546875 C3.229375 3.79609375 2.693125 3.48671875 2.140625 3.16796875 C-3.18896417 0.78367886 -9.6339153 2.1720588 -15.234375 3.10546875 C-11.11095956 -1.41065293 -5.750326 -2.302141 0 0 Z " fill="#D7D037" transform="translate(123.234375,15.89453125)"/>
<path d="M0 0 C0.66 0.33 1.32 0.66 2 1 C-2.95 9.91 -2.95 9.91 -8 19 C-9 16 -9 16 -7.6875 13.125 C-7.130625 12.09375 -6.57375 11.0625 -6 10 C-5.31471955 8.34089996 -4.64108137 6.67667436 -4 5 C-3.34 5 -2.68 5 -2 5 C-2.33 3.68 -2.66 2.36 -3 1 C-2.01 0.67 -1.02 0.34 0 0 Z " fill="#252206" transform="translate(37,132)"/>
<path d="M0 0 C1 2 1 2 0.44140625 4.05859375 C0.15136719 4.84363281 -0.13867188 5.62867188 -0.4375 6.4375 C-1.46835645 9.24346352 -2 10.97296354 -2 14 C-3.65 14 -5.3 14 -7 14 C-5.53967505 8.68972746 -3.01679014 4.53669968 0 0 Z " fill="#EDE32C" transform="translate(88,47)"/>
<path d="M0 0 C3.22818302 2.7699236 5.11911098 6.3494617 7.1875 10 C7.73954102 10.94359375 7.73954102 10.94359375 8.30273438 11.90625 C11 16.630218 11 16.630218 11 20 C10.01 20 9.02 20 8 20 C7.90847656 19.31292969 7.81695312 18.62585938 7.72265625 17.91796875 C6.83203422 14.32178141 5.25674591 11.53568923 3.4375 8.3125 C0 2.20523139 0 2.20523139 0 0 Z " fill="#121212" transform="translate(165,49)"/>
<path d="M0 0 C5.40204077 1.30958564 9.08799755 5.43303964 12 10 C11.67 10.99 11.34 11.98 11 13 C10.34 12.34 9.68 11.68 9 11 C8.46375 10.525625 7.9275 10.05125 7.375 9.5625 C6 8 6 8 6 5 C5.01 5.33 4.02 5.66 3 6 C2.34 5.34 1.68 4.68 1 4 C1 3.34 1 2.68 1 2 C0.67 1.34 0.34 0.68 0 0 Z " fill="#131213" transform="translate(136,7)"/>
<path d="M0 0 C3.82524236 1.450954 5.19090966 3.38181932 7 7 C7 7.66 7 8.32 7 9 C7.66 9.33 8.32 9.66 9 10 C9.625 12.5625 9.625 12.5625 10 15 C9.34 15 8.68 15 8 15 C6.66407203 12.6889639 5.33115569 10.37628245 4 8.0625 C3.6184375 7.40314453 3.236875 6.74378906 2.84375 6.06445312 C0 1.11328125 0 1.11328125 0 0 Z " fill="#251D07" transform="translate(157,64)"/>
<path d="M0 0 C4.09568647 3.4889181 6.99454088 8.02756026 9 13 C8.67 13.99 8.34 14.98 8 16 C7.67 14.68 7.34 13.36 7 12 C6.34 12 5.68 12 5 12 C4.67 11.01 4.34 10.02 4 9 C3.01 9 2.02 9 1 9 C1 8.01 1 7.02 1 6 C0.68578929 3.99690671 0.3548954 1.99628664 0 0 Z " fill="#131212" transform="translate(185,84)"/>
<path d="M0 0 C0.33 1.32 0.66 2.64 1 4 C-0.65 4.66 -2.3 5.32 -4 6 C-4 8.31 -4 10.62 -4 13 C-4.99 13.495 -4.99 13.495 -6 14 C-6.4560284 8.29964499 -5.60412752 5.45215753 -2 1 C-1.34 0.67 -0.68 0.34 0 0 Z " fill="#282104" transform="translate(113,156)"/>
<path d="M0 0 C1.02866653 3.20415723 1.05483179 3.86017895 -0.25 7.1875 C-2 10 -2 10 -5 11 C-5 11.99 -5 12.98 -5 14 C-5.66 14 -6.32 14 -7 14 C-5.53967505 8.68972746 -3.01679014 4.53669968 0 0 Z " fill="#EDE431" transform="translate(66,85)"/>
<path d="M0 0 C1.65 0 3.3 0 5 0 C5.33 2.97 5.66 5.94 6 9 C6.66 9 7.32 9 8 9 C7.67 9.99 7.34 10.98 7 12 C3.95950199 8.35140239 2.03481238 4.2555467 0 0 Z " fill="#242006" transform="translate(149,50)"/>
<path d="M0 0 C0.99 0 1.98 0 3 0 C3.33 1.32 3.66 2.64 4 4 C4.66 4 5.32 4 6 4 C6.33 2.68 6.66 1.36 7 0 C8.27351308 2.54702616 7.80191925 3.4282945 7.0625 6.125 C6.86785156 6.84945312 6.67320312 7.57390625 6.47265625 8.3203125 C6.23869141 9.15175781 6.23869141 9.15175781 6 10 C3.47650757 6.87567603 1.72743854 3.61939504 0 0 Z " fill="#24220B" transform="translate(192,125)"/>
<path d="M0 0 C2.48982535 2.27745789 4.10368997 4.62335238 5.75 7.5625 C6.19859375 8.34753906 6.6471875 9.13257812 7.109375 9.94140625 C7.40328125 10.62074219 7.6971875 11.30007812 8 12 C7.67 12.66 7.34 13.32 7 14 C2.57142857 8.85714286 2.57142857 8.85714286 2 5 C1.34 5 0.68 5 0 5 C0 3.35 0 1.7 0 0 Z " fill="#EAE436" transform="translate(151,55)"/>
<path d="M0 0 C-1.25805377 4.50802601 -2.90407165 7.4912812 -6 11 C-6.21952523 7.15830842 -5.72664863 4.45329726 -4 1 C-2 0 -2 0 0 0 Z " fill="#241F06" transform="translate(91,41)"/>
<path d="M0 0 C1.32 0.33 2.64 0.66 4 1 C3.34 2.32 2.68 3.64 2 5 C3.32 5 4.64 5 6 5 C6 5.66 6 6.32 6 7 C3.03 6.67 0.06 6.34 -3 6 C-2.505 5.38125 -2.01 4.7625 -1.5 4.125 C0.19222773 2.16119096 0.19222773 2.16119096 0 0 Z " fill="#ECDF21" transform="translate(118,150)"/>
<path d="M0 0 C0.598125 0.165 1.19625 0.33 1.8125 0.5 C4.11344336 1.1114124 4.11344336 1.1114124 7 1 C4.525 5.455 4.525 5.455 2 10 C1.34 9.67 0.68 9.34 0 9 C0 8.34 0 7.68 0 7 C0.66 7 1.32 7 2 7 C1.34 4.69 0.68 2.38 0 0 Z " fill="#201B09" transform="translate(43,113)"/>
<path d="M0 0 C0.66 0 1.32 0 2 0 C1.67 1.32 1.34 2.64 1 4 C0.01 4 -0.98 4 -2 4 C-2.28875 4.5775 -2.5775 5.155 -2.875 5.75 C-3.91666667 7.83333333 -4.95833333 9.91666667 -6 12 C-6.66 11.67 -7.32 11.34 -8 11 C-7.04454634 9.53977837 -6.08553322 8.08188532 -5.125 6.625 C-4.59132813 5.81289063 -4.05765625 5.00078125 -3.5078125 4.1640625 C-2 2 -2 2 0 0 Z " fill="#E2DA3D" transform="translate(105,20)"/>
<path d="M0 0 C2.7710688 2.34591852 3.52059284 4.14776201 4.1875 7.6875 C4.34605469 8.49574219 4.50460938 9.30398437 4.66796875 10.13671875 C4.77753906 10.75160156 4.88710937 11.36648437 5 12 C4.01 11.67 3.02 11.34 2 11 C1.26953125 9.00390625 1.26953125 9.00390625 0.8125 6.5625 C0.65394531 5.75941406 0.49539062 4.95632812 0.33203125 4.12890625 C0 2 0 2 0 0 Z " fill="#F3E827" transform="translate(193,128)"/>
<path d="M0 0 C0.66 1.32 1.32 2.64 2 4 C1.34 4.66 0.68 5.32 0 6 C-1.34294481 7.65893182 -2.67744688 9.32476605 -4 11 C-4.66 10.67 -5.32 10.34 -6 10 C-4.02 6.7 -2.04 3.4 0 0 Z " fill="#E7DD32" transform="translate(44,123)"/>
<path d="M0 0 C2.62113708 0 4.50935112 0.31292445 7 1 C6.34 2.98 5.68 4.96 5 7 C4.34 6.67 3.68 6.34 3 6 C3 5.01 3 4.02 3 3 C2.01 3 1.02 3 0 3 C0 2.01 0 1.02 0 0 Z " fill="#211E11" transform="translate(88,33)"/>
<path d="M0 0 C3 1 3 1 4.1875 3.0625 C4.455625 3.701875 4.72375 4.34125 5 5 C5.66 5 6.32 5 7 5 C6.34 6.65 5.68 8.3 5 10 C2.35534962 6.8745041 1.15585285 3.91211733 0 0 Z " fill="#1F1C08" transform="translate(213,160)"/>
<path d="M0 0 C1.875 0.625 1.875 0.625 4 2 C5.25 5.125 5.25 5.125 6 8 C4.02 7.01 2.04 6.02 0 5 C0 3.35 0 1.7 0 0 Z " fill="#EFE729" transform="translate(145,47)"/>
<path d="M0 0 C2.23960447 2.87949147 4.29864224 5.76742026 6 9 C5.67 9.66 5.34 10.32 5 11 C4.01 10.67 3.02 10.34 2 10 C0.47839986 6.3962102 0 3.94779314 0 0 Z " fill="#EAE333" transform="translate(175,96)"/>
<path d="M0 0 C3 0 3 0 5.1875 1.875 C7 4 7 4 7 6 C6.34 6 5.68 6 5 6 C4.67 5.34 4.34 4.68 4 4 C3.01 4 2.02 4 1 4 C0.67 2.68 0.34 1.36 0 0 Z " fill="#131313" transform="translate(147,23)"/>
<path d="M0 0 C2 2 2 2 2 6 C0.68 6.33 -0.64 6.66 -2 7 C-1.125 1.125 -1.125 1.125 0 0 Z " fill="#ECE31F" transform="translate(211,190)"/>
<path d="M0 0 C0.66 0.33 1.32 0.66 2 1 C2.625 3.0625 2.625 3.0625 3 5 C2.01 5.33 1.02 5.66 0 6 C-0.33 6.66 -0.66 7.32 -1 8 C-2.2077558 4.37673261 -1.54311128 3.35853631 0 0 Z " fill="#28230B" transform="translate(219,185)"/>
<path d="M0 0 C2.14208427 3.2131264 2.59687808 5.21065397 3 9 C2.67 9.66 2.34 10.32 2 11 C-0.14208427 7.7868736 -0.59687808 5.78934603 -1 2 C-0.67 1.34 -0.34 0.68 0 0 Z " fill="#100D10" transform="translate(1,184)"/>
<path d="M0 0 C1.65 0 3.3 0 5 0 C5.33 0.99 5.66 1.98 6 3 C3.69 3 1.38 3 -1 3 C-0.67 2.01 -0.34 1.02 0 0 Z " fill="#141405" transform="translate(115,12)"/>
<path d="M0 0 C2.31 1.98 4.62 3.96 7 6 C5.68 6.33 4.36 6.66 3 7 C2.01 6.34 1.02 5.68 0 5 C-0.1875 2.375 -0.1875 2.375 0 0 Z " fill="#E9E335" transform="translate(107,170)"/>
<path d="M0 0 C0.33 0.66 0.66 1.32 1 2 C1.66 2.33 2.32 2.66 3 3 C0.03 5.475 0.03 5.475 -3 8 C-3 6.35 -3 4.7 -3 3 C-2.34 3 -1.68 3 -1 3 C-0.67 2.01 -0.34 1.02 0 0 Z " fill="#E8E32D" transform="translate(107,61)"/>
<path d="M0 0 C0.99 0 1.98 0 3 0 C3 3.96 3 7.92 3 12 C2.34 11.67 1.68 11.34 1 11 C0.5859375 8.49609375 0.5859375 8.49609375 0.375 5.4375 C0.30023438 4.42558594 0.22546875 3.41367188 0.1484375 2.37109375 C0.09945312 1.58863281 0.05046875 0.80617187 0 0 Z " fill="#F9EF20" transform="translate(104,160)"/>
</svg>
